HIERARCHY
ROOT Hips
{
	OFFSET 0.000000 8.830580 0.000000
	CHANNELS 6 Xposition Yposition Zposition Zrotation Yrotation Xrotation 
	JOINT Spine
	{
		OFFSET 0.000000 0.010000 0.000000
		CHANNELS 3 Zrotation Yrotation Xrotation
		JOINT Spine1
		{
			OFFSET 0.000000 2.459130 0.000000
			CHANNELS 3 Zrotation Yrotation Xrotation
			JOINT Neck
			{
				OFFSET 0.000000 2.484630 0.000000
				CHANNELS 3 Zrotation Yrotation Xrotation
				JOINT Head_virtual
				{
					OFFSET 0.000000 0.000000 0.000000
					CHANNELS 3 Zrotation Yrotation Xrotation
					JOINT Head
					{
						OFFSET 0.000000 0.927525 0.000000
						CHANNELS 3 Zrotation Yrotation Xrotation
						End Site
						{
							OFFSET 0.000000 0.000000 0.000000
						}
					}
				}
				JOINT LeftUpArm_virtual
				{
					OFFSET 0.000000 0.000000 0.000000
					CHANNELS 3 Zrotation Yrotation Xrotation
					JOINT LeftUpArm
					{
						OFFSET 1.248820 0.000000 0.000000
						CHANNELS 3 Zrotation Yrotation Xrotation
						JOINT LeftForeArm
						{
							OFFSET 2.597580 0.000000 0.000000
							CHANNELS 3 Zrotation Yrotation Xrotation
							JOINT LeftHand
							{
								OFFSET 2.455420 0.000000 0.000000
								CHANNELS 3 Zrotation Yrotation Xrotation
								End Site
								{
									OFFSET 0.000000 0.000000 0.000000
								}
							}
						}
					}
				}
				JOINT RightUpArm_virtual
				{
					OFFSET -0.000000 -0.000000 -0.000000
					CHANNELS 3 Zrotation Yrotation Xrotation
					JOINT RightUpArm
					{
						OFFSET -1.248820 -0.000000 -0.000000
						CHANNELS 3 Zrotation Yrotation Xrotation
						JOINT RightForeArm
						{
							OFFSET -2.597580 -0.000000 -0.000000
							CHANNELS 3 Zrotation Yrotation Xrotation
							JOINT RightHand
							{
								OFFSET -2.455420 -0.000000 -0.000000
								CHANNELS 3 Zrotation Yrotation Xrotation
								End Site
								{
									OFFSET 0.000000 0.000000 0.000000
								}
							}
						}
					}
				}
			}
		}
	}
	JOINT LeftUpLeg
	{
		OFFSET 1.271939 0.000000 0.000000
		CHANNELS 3 Zrotation Yrotation Xrotation
		JOINT LeftLowLeg
		{
			OFFSET 0.000000 -4.342910 0.000000
			CHANNELS 3 Zrotation Yrotation Xrotation
			JOINT LeftFoot
			{
				OFFSET 0.000000 -4.487670 0.000000
				CHANNELS 3 Zrotation Yrotation Xrotation
				JOINT LeftToeBase
				{
					OFFSET 0.000000 0.000000 1.515070
					CHANNELS 3 Zrotation Yrotation Xrotation
					End Site
					{
						OFFSET 0.000000 0.000000 0.000000
					}
				}
			}
		}
	}
	JOINT RightUpLeg
	{
		OFFSET -1.271939 0.000000 0.000000
		CHANNELS 3 Zrotation Yrotation Xrotation
		JOINT RightLowLeg
		{
			OFFSET 0.000000 -4.342910 0.000000
			CHANNELS 3 Zrotation Yrotation Xrotation
			JOINT RightFoot
			{
				OFFSET 0.000000 -4.487670 0.000000
				CHANNELS 3 Zrotation Yrotation Xrotation
				JOINT RightToeBase
				{
					OFFSET 0.000000 0.000000 1.515070
					CHANNELS 3 Zrotation Yrotation Xrotation
					End Site
					{
						OFFSET 0.000000 0.000000 0.000000
					}
				}
			}
		}
	}
}
MOTION
Frames: 13
Frame Time: 0.041667
-10.118652 8.810972 28.454824 -171.087943 -70.343256 -178.994751 4.064604 8.740487 -17.078111 2.437777 7.971451 8.590829 0.000000 0.000000 0.000000 2.416382 29.664019 22.014602 -19.926290 -33.246249 -79.664005 -11.192500 19.067900 -6.937012 -12.054300 6.618210 -52.350498 0.000000 -33.369701 0.000000 31.627199 20.992300 -9.981280 26.698999 -1.297880 3.342010 47.573601 19.843599 52.645996 -180.000000 77.759003 -180.000000 -18.228600 25.036900 10.541700 -6.383170 -0.343568 -33.712887 0.000000 0.000000 26.934999 -9.205575 6.330875 4.986486 0.000000 0.000000 -36.082100 9.761952 -5.582245 -3.551725 0.000000 0.000000 21.737101 34.854384 -5.057879 -9.788287 0.000000 0.000000 -24.150640 
-10.193018 8.797893 28.414005 -171.599908 -70.884108 -179.256173 3.770396 8.438329 -16.268625 2.888435 7.883469 8.631237 0.000000 0.000000 0.000000 1.356566 30.738274 22.352738 -19.057297 -33.547961 -79.992747 -10.888300 19.091700 -6.773987 -10.661400 5.167490 -52.283501 0.000000 -36.003399 0.000000 30.792801 18.770700 -9.199960 26.869400 -1.124870 4.634003 47.194901 20.715599 51.610992 -180.000000 77.666000 -180.000000 -18.129801 24.901600 10.561900 -7.001544 0.014441 -32.001599 0.000000 0.000000 22.382000 -7.126637 6.576421 5.550707 0.000000 0.000000 -36.802799 9.599318 -5.799529 -2.367515 0.000000 0.000000 21.929199 35.075113 -5.117350 -10.186533 0.000000 0.000000 -24.395970 
-10.280871 8.781468 28.371184 -172.550812 -71.408886 -178.202166 3.271464 7.992106 -16.500984 3.154060 7.818833 8.674579 0.000000 0.000000 0.000000 0.456174 31.847446 22.755235 -18.212347 -33.685373 -80.356112 -10.753500 19.112499 -6.846008 -9.194010 3.775620 -51.822601 0.000000 -38.888302 0.000000 31.261999 17.712999 -6.547000 26.857599 -0.994113 4.714996 47.379601 20.745001 51.740997 -180.000000 77.636002 -180.000000 -18.205400 24.585300 10.319400 -7.472842 -0.208177 -31.045027 0.000000 0.000000 18.178400 -6.062328 7.196563 5.402101 0.000000 0.000000 -36.828300 9.385692 -5.815491 -2.022272 0.000000 0.000000 22.203199 35.394668 -5.094442 -10.711110 0.000000 0.000000 -24.654840 
-10.378347 8.763064 28.330611 -173.784567 -71.764070 -176.826063 2.837268 7.643699 -16.891938 3.136084 7.772868 8.779727 0.000000 0.000000 0.000000 -0.100838 32.683856 23.082742 -17.845930 -33.606238 -80.492598 -10.603700 18.704700 -7.256989 -7.929950 2.896260 -51.040298 0.000000 -41.969101 0.000000 30.945801 16.951099 -3.561320 26.831301 -0.905325 4.721985 47.517799 20.779699 51.854004 180.000000 77.556999 180.000000 -17.797400 24.298401 10.409000 -7.895518 -0.548631 -30.074222 0.000000 0.000000 14.427000 -5.183661 8.425483 5.202340 0.000000 0.000000 -36.700600 9.087824 -5.719274 -1.738517 0.000000 0.000000 22.593901 35.688220 -5.116126 -11.295491 0.000000 0.000000 -24.957760 
-10.491164 8.743313 28.286470 -175.390191 -72.053197 -173.790281 2.206085 7.200506 -18.786839 2.956249 7.804271 8.982769 0.000000 0.000000 0.000000 -0.606068 33.534056 23.255748 -17.535670 -33.388289 -80.548881 -10.431900 18.532000 -7.365997 -6.837290 1.583900 -50.368900 0.000000 -44.735699 0.000000 29.733700 16.418400 -8.888440 26.597401 -0.885423 3.752991 48.167000 20.118200 52.850006 180.000000 77.545998 180.000000 -17.484100 23.970600 10.468500 -8.426238 -0.933452 -30.378057 0.000000 0.000000 11.462700 -5.569563 9.889498 4.698367 0.000000 0.000000 -35.975300 8.840234 -5.262403 -2.596160 0.000000 0.000000 22.862301 36.184592 -5.234981 -12.025706 0.000000 0.000000 -25.183300 
-10.603668 8.722948 28.250314 -176.538003 -72.155667 -171.901933 1.977884 6.898179 -19.735626 2.540020 7.684082 8.936686 0.000000 0.000000 0.000000 -1.180544 34.296001 23.262607 -17.182620 -33.213554 -80.462438 -10.245000 18.453899 -7.007996 -6.298900 0.235600 -50.322800 0.000000 -47.604500 0.000000 29.203100 15.423900 -8.025220 26.365900 -0.851788 3.326996 48.561901 19.962999 53.563995 -180.000000 77.512001 -180.000000 -17.031601 23.753901 10.846600 -8.848785 -1.113008 -30.221797 0.000000 0.000000 9.708030 -6.189451 11.847241 4.271248 0.000000 0.000000 -35.551800 8.633173 -4.674500 -2.789315 0.000000 0.000000 23.181700 36.624195 -5.540367 -12.726242 0.000000 0.000000 -25.409100 
-10.726720 8.702961 28.217101 -177.584666 -72.307426 -170.553356 1.945956 6.736506 -20.331703 1.938542 7.516304 8.913221 0.000000 0.000000 0.000000 -1.662173 34.884161 23.174529 -17.049795 -33.057731 -80.319752 -10.057000 18.224701 -6.562012 -6.019920 -1.186440 -50.205502 0.000000 -50.237301 0.000000 28.121700 14.649300 -7.707790 26.097000 -1.004020 2.967010 48.973202 19.968901 54.278015 180.000000 77.510002 180.000000 -16.858101 23.414301 10.989400 -9.140354 -1.490527 -30.001492 0.000000 0.000000 9.684510 -6.371617 13.855360 3.939087 0.000000 0.000000 -35.187201 8.359280 -4.355640 -2.415781 0.000000 0.000000 23.364401 37.108220 -5.701787 -13.218375 0.000000 0.000000 -25.668100 
-10.856897 8.684074 28.188722 -178.550321 -72.373417 -169.296599 1.957854 6.538106 -20.842298 1.453487 7.302457 8.709022 0.000000 0.000000 0.000000 -2.294796 35.496391 23.122377 -17.073408 -32.998305 -80.099039 -10.076800 17.952499 -6.371002 -5.997170 -2.273410 -49.513199 0.000000 -52.804798 0.000000 27.176001 13.677600 -8.460130 25.658501 -1.074840 2.575989 49.409199 19.820900 55.026001 -180.000000 77.530998 -180.000000 -16.524000 23.123400 11.316200 -9.643922 -1.402680 -30.149172 0.000000 0.000000 11.209900 -5.905113 15.052624 4.056095 0.000000 0.000000 -35.023399 8.000265 -4.209178 -2.063809 0.000000 0.000000 23.678699 37.639693 -5.600084 -13.426472 0.000000 0.000000 -26.054300 
-10.997772 8.666623 28.158875 -179.402010 -72.245504 -168.124325 1.976304 6.435606 -21.462481 1.020350 7.171313 8.589525 0.000000 0.000000 0.000000 -3.069522 36.137306 22.902347 -16.905955 -33.044874 -79.949623 -10.116800 17.683800 -6.393005 -6.347080 -3.198870 -48.471600 0.000000 -55.174000 0.000000 25.425501 13.061100 -9.919720 25.224100 -1.170940 2.337006 49.792599 19.814301 55.694000 180.000000 77.572998 180.000000 -16.286900 22.934099 11.595300 -10.409197 -0.597184 -30.203111 0.000000 0.000000 12.815700 -5.654774 14.981904 4.082705 0.000000 0.000000 -35.275999 7.577793 -3.998123 -1.813455 0.000000 0.000000 24.259899 38.172475 -5.393642 -13.367175 0.000000 0.000000 -26.620100 
-11.153080 8.655724 28.132244 179.444719 -71.769719 -166.852330 1.930451 6.362766 -22.052196 0.751171 7.129409 8.669116 0.000000 0.000000 0.000000 -4.249484 37.009696 22.568802 -16.246851 -33.316345 -79.971330 -10.489500 17.569099 -6.153992 -6.900050 -3.966940 -47.649502 0.000000 -57.408100 0.000000 23.899799 12.432600 -11.261600 24.890100 -1.191160 2.401001 49.886299 20.065599 56.197998 180.000000 77.678001 180.000000 -16.036600 23.082600 12.114000 -11.416017 0.662283 -29.508466 0.000000 0.000000 12.672200 -4.789574 13.909602 4.772148 0.000000 0.000000 -33.976900 6.846990 -3.899167 -1.460541 0.000000 0.000000 25.059900 38.951093 -4.850725 -12.880823 0.000000 0.000000 -27.596400 
-11.330453 8.653613 28.108602 177.581637 -71.137600 -167.706171 1.993479 6.230402 -20.255335 0.502304 6.878850 9.125565 0.000000 0.000000 0.000000 -5.355570 37.852408 22.247893 -16.509358 -33.387701 -79.676755 -10.964300 17.393700 -5.752014 -7.808430 -4.146210 -46.896099 0.000000 -59.599400 0.000000 23.307699 11.355100 -10.658100 24.863600 -0.940271 3.513000 49.301399 21.094999 55.928986 -180.000000 77.777000 -180.000000 -15.557300 23.666300 13.158200 -12.135628 1.475237 -25.398316 0.000000 0.000000 11.078500 -1.178175 13.053611 8.975732 0.000000 0.000000 -35.364000 5.463861 -4.341210 1.729283 0.000000 0.000000 25.921499 39.829529 -4.085749 -11.890861 0.000000 0.000000 -28.900900 
-11.511497 8.654174 28.090018 176.121414 -70.239015 -166.676107 2.045115 6.315995 -20.516283 -0.001479 6.816961 9.273019 0.000000 0.000000 0.000000 -6.492899 38.825518 21.803971 -16.551978 -33.354677 -79.451551 -11.426200 17.265699 -5.212006 -8.911700 -4.094820 -46.138100 0.000000 -61.746201 0.000000 23.618401 11.126600 -9.306030 24.796301 -0.825754 3.406006 49.314800 21.225599 56.769989 -180.000000 78.099998 -180.000000 -15.863900 24.235201 13.857100 -12.685654 1.269685 -23.452203 0.000000 0.000000 9.551810 4.715661 12.936889 12.965091 0.000000 0.000000 -36.758600 4.188990 -4.241063 2.313458 0.000000 0.000000 27.358101 40.851536 -3.387839 -10.596932 0.000000 0.000000 -30.592700 
-11.695125 8.660017 28.078432 174.781137 -69.269512 -165.851823 2.240493 6.584356 -20.601696 -0.762155 6.763667 9.320922 0.000000 0.000000 0.000000 -7.388729 39.656904 21.262150 -16.847610 -33.107056 -79.055967 -11.934200 17.136299 -4.776001 -10.254300 -3.891500 -45.550098 0.000000 -63.901001 0.000000 24.113600 10.547800 -8.621450 24.804501 -0.619045 3.433014 49.232899 21.255400 57.118011 180.000000 78.335999 180.000000 -15.151200 24.605000 14.449800 -13.231967 0.801466 -21.936557 0.000000 0.000000 9.411950 7.725336 14.243302 14.030818 0.000000 0.000000 -36.513800 2.750876 -4.135198 2.583240 0.000000 0.000000 29.424700 41.909419 -2.749092 -8.765567 0.000000 0.000000 -32.964001 
